<?xml version="1.0" standalone="no"?>
<!DOCTYPE svg PUBLIC "-//W3C//DTD SVG 20010904//EN"
 "http://www.w3.org/TR/2001/REC-SVG-20010904/DTD/svg10.dtd">
<svg version="1.0" xmlns="http://www.w3.org/2000/svg"
 width="512.000000pt" height="146.000000pt" viewBox="0 0 512.000000 146.000000"
 preserveAspectRatio="xMidYMid meet">

<g transform="translate(0.000000,146.000000) scale(0.100000,-0.100000)"
fill="#000000" stroke="none">
<path d="M180 1055 l0 -95 95 0 95 0 0 -335 0 -335 95 0 95 0 0 335 0 335 95
0 95 0 0 95 0 95 -285 0 -285 0 0 -95z"/>
<path d="M870 720 l0 -430 95 0 95 0 0 165 c0 102 4 165 10 165 5 0 59 -74
120 -165 l110 -165 106 0 c81 0 104 3 98 12 -4 7 -57 87 -118 177 l-111 163
25 16 c48 31 98 91 114 138 38 111 6 235 -75 293 -58 43 -88 48 -291 55 l-178
6 0 -430z m303 261 c43 -17 67 -51 67 -96 0 -71 -53 -115 -140 -115 l-40 0 0
110 0 110 44 0 c25 0 56 -4 69 -9z"/>
<path d="M1657 1144 c-4 -4 -7 -198 -7 -431 l0 -423 245 0 245 0 0 85 0 85
-150 0 -150 0 0 90 0 90 150 0 150 0 0 80 0 80 -150 0 -150 0 0 90 0 90 150 0
151 0 -3 83 -3 82 -236 3 c-129 1 -238 -1 -242 -4z"/>
<path d="M2280 720 l0 -430 95 0 95 0 2 269 3 269 190 -269 190 -268 93 -1 92
0 0 430 0 430 -90 0 -90 0 0 -254 c0 -140 -3 -261 -6 -270 -4 -11 -67 69 -198
252 l-191 267 -93 3 -92 3 0 -431z"/>
<path d="M3207 1143 c-4 -3 -7 -197 -7 -430 l0 -423 173 0 c123 0 190 4 232
15 126 33 212 105 267 220 54 117 49 295 -13 416 -51 101 -176 185 -286 194
-115 9 -360 15 -366 8z m361 -178 c100 -30 152 -116 152 -251 0 -104 -39 -183
-109 -222 -42 -24 -159 -45 -196 -36 l-25 6 0 259 0 259 63 0 c35 0 87 -7 115
-15z"/>
<path d="M4070 1060 l0 -90 164 -2 164 -3 -185 -325 c-102 -179 -188 -331
-190 -337 -4 -10 64 -13 321 -13 l326 0 0 90 0 90 -181 0 c-151 0 -180 2 -176
14 3 8 87 156 186 330 100 173 181 320 181 326 0 7 -105 10 -305 10 l-305 0 0
-90z"/>
<path d="M4864 471 c-44 -27 -60 -77 -41 -124 46 -109 197 -76 197 43 0 72
-94 120 -156 81z"/>
</g>
</svg>
